# xmcd
#
# Track frame offsets:
#	165
#	16789
#	30893
#	43595
#	59041
#	72842
#	86036
#	99586
#	110844
#	119385
#	134360
#	145356
#	161093
#
# Disc length: 2348 seconds
#
# Revision: 0
# Processed by: cddbd v1.5PL3 Copyright (c) Steve Scherf et al.
# Submitted via: dBpowerAMP V4.0
#
DISCID=b6092a0d
DTITLE=Various Artist - O Passado é Uma Parada Vol. 6
DYEAR=1900
DGENRE=Easy Listening
TTITLE0=Lindomar Castilho/Ébrio de Amor
TTITLE1=Jamelão/Matriz ou Filial
TTITLE2=Claudio de Barros/Cinzas do Passado
TTITLE3=José Augusto/Esta Noite Eu Queria Que o Mundo Acabasse
TTITLE4=Albertinho Fortuna/Uno
TTITLE5=Renato Guimarães/Ninguem é de Ninguem
TTITLE6=Waldik Soriano/A Carta
TTITLE7=Noite Ilustrada/Nervos de Aço
TTITLE8=Adilson Ramos/Beija-me Muito
TTITLE9=João Viola/É Por Voce que Canto
TTITLE10=Carlos André/Siboney
TTITLE11=Barto Galeno/No Meu Carro Por Aí
TTITLE12=Claudia Barroso/Se Deus Me Ouvisse
EXTD=
EXTT0=
EXTT1=
EXTT2=
EXTT3=
EXTT4=
EXTT5=
EXTT6=
EXTT7=
EXTT8=
EXTT9=
EXTT10=
EXTT11=
EXTT12=
PLAYORDER=
